HIERARCHY
ROOT Hips
{
	OFFSET 0.265475 87.646278 5.308476
	CHANNELS 6 Xposition Yposition Zposition Zrotation Yrotation Xrotation 
	JOINT Spine
	{
		OFFSET -0.000000 8.814246 -2.080107
		CHANNELS 3 Zrotation Yrotation Xrotation
		JOINT Spine1
		{
			OFFSET -0.000000 8.844141 -0.000000
			CHANNELS 3 Zrotation Yrotation Xrotation
			JOINT Spine2
			{
				OFFSET -0.000000 11.682268 -0.000000
				CHANNELS 3 Zrotation Yrotation Xrotation
				JOINT Spine3
				{
					OFFSET 0.000000 11.746700 0.000000
					CHANNELS 3 Zrotation Yrotation Xrotation
					JOINT Neck
					{
						OFFSET -0.000000 17.658264 -0.000000
						CHANNELS 3 Zrotation Yrotation Xrotation
						JOINT Neck1
						{
							OFFSET 0.000000 5.101515 0.000000
							CHANNELS 3 Zrotation Yrotation Xrotation
							JOINT Head
							{
								OFFSET -0.000000 5.101515 -0.000000
								CHANNELS 3 Zrotation Yrotation Xrotation
								JOINT HeadEnd
								{
									OFFSET 0.000000 11.655085 0.000000
									CHANNELS 3 Zrotation Yrotation Xrotation
									End Site
									{
										OFFSET 0.000000 0.000000 0.000000
									}
								}
							}
						}
					}
					JOINT RightShoulder
					{
						OFFSET -2.625389 11.175210 -0.000000
						CHANNELS 3 Zrotation Yrotation Xrotation
						JOINT RightArm
						{
							OFFSET 0.000000 10.434715 -0.000000
							CHANNELS 3 Zrotation Yrotation Xrotation
							JOINT RightForeArm
							{
								OFFSET 0.000000 29.628420 -0.000000
								CHANNELS 3 Zrotation Yrotation Xrotation
								JOINT RightHand
								{
									OFFSET 0.000000 22.857611 -0.000000
									CHANNELS 3 Zrotation Yrotation Xrotation
									JOINT RightHandThumb1
									{
										OFFSET -2.867323 3.959563 2.944291
										CHANNELS 3 Zrotation Yrotation Xrotation
										JOINT RightHandThumb2
										{
											OFFSET -0.000000 3.350399 0.000000
											CHANNELS 3 Zrotation Yrotation Xrotation
											JOINT RightHandThumb3
											{
												OFFSET 0.000000 3.756509 0.000000
												CHANNELS 3 Zrotation Yrotation Xrotation
												JOINT RightHandThumb4
												{
													OFFSET -0.000000 3.147345 0.000000
													CHANNELS 3 Zrotation Yrotation Xrotation
													End Site
													{
														OFFSET 0.000000 0.000000 0.000000
													}
												}
											}
										}
									}
									JOINT RightHandIndex1
									{
										OFFSET -0.086752 10.030893 2.345280
										CHANNELS 3 Zrotation Yrotation Xrotation
										JOINT RightHandIndex2
										{
											OFFSET 0.000000 4.061090 -0.000000
											CHANNELS 3 Zrotation Yrotation Xrotation
											JOINT RightHandIndex3
											{
												OFFSET -0.000000 3.248873 0.000000
												CHANNELS 3 Zrotation Yrotation Xrotation
												JOINT RightHandIndex4
												{
													OFFSET 0.000000 2.639709 -0.000000
													CHANNELS 3 Zrotation Yrotation Xrotation
													End Site
													{
														OFFSET 0.000000 0.000000 0.000000
													}
												}
											}
										}
									}
									JOINT RightHandMiddle1
									{
										OFFSET 0.104102 9.502952 0.006768
										CHANNELS 3 Zrotation Yrotation Xrotation
										JOINT RightHandMiddle2
										{
											OFFSET 0.000000 4.568727 -0.000000
											CHANNELS 3 Zrotation Yrotation Xrotation
											JOINT RightHandMiddle3
											{
												OFFSET -0.000000 3.654981 0.000000
												CHANNELS 3 Zrotation Yrotation Xrotation
												JOINT RightHandMiddle4
												{
													OFFSET -0.000000 2.741236 0.000000
													CHANNELS 3 Zrotation Yrotation Xrotation
													End Site
													{
														OFFSET 0.000000 0.000000 0.000000
													}
												}
											}
										}
									}
									JOINT RightHandRing1
									{
										OFFSET 0.086752 8.921708 -2.267442
										CHANNELS 3 Zrotation Yrotation Xrotation
										JOINT RightHandRing2
										{
											OFFSET -0.000000 4.061090 0.000000
											CHANNELS 3 Zrotation Yrotation Xrotation
											JOINT RightHandRing3
											{
												OFFSET 0.000000 3.654981 -0.000000
												CHANNELS 3 Zrotation Yrotation Xrotation
												JOINT RightHandRing4
												{
													OFFSET 0.000000 2.741236 -0.000000
													CHANNELS 3 Zrotation Yrotation Xrotation
													End Site
													{
														OFFSET 0.000000 0.000000 0.000000
													}
												}
											}
										}
									}
									JOINT RightHandPinky1
									{
										OFFSET -0.173504 7.976997 -4.467199
										CHANNELS 3 Zrotation Yrotation Xrotation
										JOINT RightHandPinky2
										{
											OFFSET -0.000000 3.350399 -0.000000
											CHANNELS 3 Zrotation Yrotation Xrotation
											JOINT RightHandPinky3
											{
												OFFSET -0.000000 2.842763 0.000000
												CHANNELS 3 Zrotation Yrotation Xrotation
												JOINT RightHandPinky4
												{
													OFFSET -0.000000 2.639709 0.000000
													CHANNELS 3 Zrotation Yrotation Xrotation
													End Site
													{
														OFFSET 0.000000 0.000000 0.000000
													}
												}
											}
										}
									}
									JOINT RightForeArmEnd
									{
										OFFSET 0.000000 0.000000 0.000000
										CHANNELS 3 Zrotation Yrotation Xrotation
										End Site
										{
											OFFSET 0.000000 0.000000 0.000000
										}
									}
								}
								JOINT RightArmEnd
								{
									OFFSET 0.000000 0.000000 0.000000
									CHANNELS 3 Zrotation Yrotation Xrotation
									End Site
									{
										OFFSET 0.000000 0.000000 0.000000
									}
								}
							}
						}
					}
					JOINT LeftShoulder
					{
						OFFSET 2.625389 11.175210 -0.000000
						CHANNELS 3 Zrotation Yrotation Xrotation
						JOINT LeftArm
						{
							OFFSET -0.000000 10.813635 0.000000
							CHANNELS 3 Zrotation Yrotation Xrotation
							JOINT LeftForeArm
							{
								OFFSET -0.000000 28.724781 -0.000000
								CHANNELS 3 Zrotation Yrotation Xrotation
								JOINT LeftHand
								{
									OFFSET 0.644384 25.716167 -0.328871
									CHANNELS 3 Zrotation Yrotation Xrotation
									JOINT LeftHandThumb1
									{
										OFFSET 2.867323 3.959563 2.944291
										CHANNELS 3 Zrotation Yrotation Xrotation
										JOINT LeftHandThumb2
										{
											OFFSET -0.000000 3.350399 -0.000000
											CHANNELS 3 Zrotation Yrotation Xrotation
											JOINT LeftHandThumb3
											{
												OFFSET -0.000000 3.756509 -0.000000
												CHANNELS 3 Zrotation Yrotation Xrotation
												JOINT LeftHandThumb4
												{
													OFFSET 0.000000 3.100000 0.000000
													CHANNELS 3 Zrotation Yrotation Xrotation
													End Site
													{
														OFFSET 0.000000 0.000000 0.000000
													}
												}
											}
										}
									}
									JOINT LeftHandIndex1
									{
										OFFSET 0.086752 10.030893 2.345280
										CHANNELS 3 Zrotation Yrotation Xrotation
										JOINT LeftHandIndex2
										{
											OFFSET 0.000000 4.061090 -0.000000
											CHANNELS 3 Zrotation Yrotation Xrotation
											JOINT LeftHandIndex3
											{
												OFFSET -0.000000 3.248873 0.000000
												CHANNELS 3 Zrotation Yrotation Xrotation
												JOINT LeftHandIndex4
												{
													OFFSET 0.000000 2.639709 0.000000
													CHANNELS 3 Zrotation Yrotation Xrotation
													End Site
													{
														OFFSET 0.000000 0.000000 0.000000
													}
												}
											}
										}
									}
									JOINT LeftHandMiddle1
									{
										OFFSET -0.104102 9.502952 0.006768
										CHANNELS 3 Zrotation Yrotation Xrotation
										JOINT LeftHandMiddle2
										{
											OFFSET -0.000000 4.568727 -0.000000
											CHANNELS 3 Zrotation Yrotation Xrotation
											JOINT LeftHandMiddle3
											{
												OFFSET -0.000000 3.654981 -0.000000
												CHANNELS 3 Zrotation Yrotation Xrotation
												JOINT LeftHandMiddle4
												{
													OFFSET -0.000000 2.741236 -0.000000
													CHANNELS 3 Zrotation Yrotation Xrotation
													End Site
													{
														OFFSET 0.000000 0.000000 0.000000
													}
												}
											}
										}
									}
									JOINT LeftHandRing1
									{
										OFFSET -0.086752 8.921708 -2.267442
										CHANNELS 3 Zrotation Yrotation Xrotation
										JOINT LeftHandRing2
										{
											OFFSET 0.000000 4.061090 0.000000
											CHANNELS 3 Zrotation Yrotation Xrotation
											JOINT LeftHandRing3
											{
												OFFSET 0.000000 3.654981 0.000000
												CHANNELS 3 Zrotation Yrotation Xrotation
												JOINT LeftHandRing4
												{
													OFFSET -0.000000 2.741236 -0.000000
													CHANNELS 3 Zrotation Yrotation Xrotation
													End Site
													{
														OFFSET 0.000000 0.000000 0.000000
													}
												}
											}
										}
									}
									JOINT LeftHandPinky1
									{
										OFFSET 0.173504 7.976997 -4.467199
										CHANNELS 3 Zrotation Yrotation Xrotation
										JOINT LeftHandPinky2
										{
											OFFSET 0.000000 3.350399 0.000000
											CHANNELS 3 Zrotation Yrotation Xrotation
											JOINT LeftHandPinky3
											{
												OFFSET -0.000000 2.842763 0.000000
												CHANNELS 3 Zrotation Yrotation Xrotation
												JOINT LeftHandPinky4
												{
													OFFSET -0.000000 2.639709 -0.000000
													CHANNELS 3 Zrotation Yrotation Xrotation
													End Site
													{
														OFFSET 0.000000 0.000000 0.000000
													}
												}
											}
										}
									}
									JOINT LeftForeArmEnd
									{
										OFFSET 0.000000 0.000000 0.000000
										CHANNELS 3 Zrotation Yrotation Xrotation
										End Site
										{
											OFFSET 0.000000 0.000000 0.000000
										}
									}
								}
								JOINT LeftArmEnd
								{
									OFFSET 0.000000 0.000000 0.000000
									CHANNELS 3 Zrotation Yrotation Xrotation
									End Site
									{
										OFFSET 0.000000 0.000000 0.000000
									}
								}
							}
						}
					}
				}
			}
		}
	}
	JOINT RightUpLeg
	{
		OFFSET -11.289943 0.000000 -0.000000
		CHANNELS 3 Zrotation Yrotation Xrotation
		JOINT RightLeg
		{
			OFFSET -0.000000 -38.200325 -0.000000
			CHANNELS 3 Zrotation Yrotation Xrotation
			JOINT RightFoot
			{
				OFFSET -0.000000 -39.900856 0.000000
				CHANNELS 3 Zrotation Yrotation Xrotation
				JOINT RightToeBase
				{
					OFFSET 0.000000 0.000000 15.261641
					CHANNELS 3 Zrotation Yrotation Xrotation
					JOINT RightToeBaseEnd
					{
						OFFSET -0.000000 0.000000 7.370709
						CHANNELS 3 Zrotation Yrotation Xrotation
						End Site
						{
							OFFSET 0.000000 0.000000 0.000000
						}
					}
				}
				JOINT RightLegEnd
				{
					OFFSET 0.000000 0.000000 0.000000
					CHANNELS 3 Zrotation Yrotation Xrotation
					End Site
					{
						OFFSET 0.000000 0.000000 0.000000
					}
				}
			}
			JOINT RightUpLegEnd
			{
				OFFSET 0.000000 0.000000 0.000000
				CHANNELS 3 Zrotation Yrotation Xrotation
				End Site
				{
					OFFSET 0.000000 0.000000 0.000000
				}
			}
		}
	}
	JOINT LeftUpLeg
	{
		OFFSET 11.315661 0.000000 -0.000000
		CHANNELS 3 Zrotation Yrotation Xrotation
		JOINT LeftLeg
		{
			OFFSET -0.000000 -38.200325 0.000000
			CHANNELS 3 Zrotation Yrotation Xrotation
			JOINT LeftFoot
			{
				OFFSET 0.000000 -39.900856 -0.000000
				CHANNELS 3 Zrotation Yrotation Xrotation
				JOINT LeftToeBase
				{
					OFFSET 0.000000 0.000000 15.261641
					CHANNELS 3 Zrotation Yrotation Xrotation
					JOINT LeftToeBaseEnd
					{
						OFFSET -0.000000 0.000000 7.539996
						CHANNELS 3 Zrotation Yrotation Xrotation
						End Site
						{
							OFFSET 0.000000 0.000000 0.000000
						}
					}
				}
				JOINT LeftLegEnd
				{
					OFFSET 0.000000 0.000000 0.000000
					CHANNELS 3 Zrotation Yrotation Xrotation
					End Site
					{
						OFFSET 0.000000 0.000000 0.000000
					}
				}
			}
			JOINT LeftUpLegEnd
			{
				OFFSET 0.000000 0.000000 0.000000
				CHANNELS 3 Zrotation Yrotation Xrotation
				End Site
				{
					OFFSET 0.000000 0.000000 0.000000
				}
			}
		}
	}
}
MOTION
Frames: 4
Frame Time: 0.016667
-13.958285 87.298714 25.465721 -2.548974 13.721127 -17.910620 4.939981 -1.073198 9.747444 1.375309 -0.216428 4.032042 -0.735803 -0.398622 8.281934 -1.578354 -0.025118 6.764892 -3.831953 0.708632 11.802069 -1.167080 -0.495311 0.112696 -1.442375 -1.722886 -21.934898 0.000000 0.000000 0.000000 85.667305 0.441941 8.263109 53.512600 4.478123 3.939210 0.159170 24.184404 76.896820 65.168839 45.574371 43.684464 13.877439 -1.980759 38.602398 -0.000008 0.000028 -33.232681 0.000005 0.000037 -23.052025 0.000006 -0.000000 -0.000015 30.822802 0.128170 -7.917006 20.755110 -0.138805 0.369752 20.658676 -0.131555 0.307090 -0.000018 0.000019 -0.000009 29.061155 -0.013684 -8.028248 19.427031 -0.068093 0.150969 19.828781 -0.041863 0.117376 0.000003 -0.000134 -0.000023 28.784414 -0.051079 -8.000058 19.777668 0.138892 -0.197793 19.940994 0.070828 -0.130996 0.000008 0.000033 -0.000003 28.521141 0.059249 -8.880872 18.785248 0.375774 -0.568459 18.953417 0.275955 -0.459245 -0.000349 0.000001 0.000033 0.000000 0.000000 0.000000 0.000000 0.000000 0.000000 -85.142616 -0.553438 3.736665 -63.826515 -10.713579 -4.820445 -0.559880 -20.624878 85.755951 -79.560860 -40.056011 54.235714 -15.224315 2.032919 37.943497 0.000007 0.000020 -37.168907 -0.000018 -0.000007 -25.727737 -0.000343 -0.000001 0.001458 -39.436169 0.037902 -9.218471 -27.134932 -0.030523 -0.098888 -27.087141 0.004863 -0.113178 0.000030 0.000405 -0.000022 -38.325844 0.009746 -8.633217 -26.855642 -0.026226 -0.043896 -26.637796 -0.006269 -0.047552 0.000081 0.000005 -0.000156 -39.685356 0.001187 -8.195406 -28.415392 0.050054 0.057241 -28.483019 0.014468 0.045399 0.000147 0.000015 -0.000001 -40.169239 0.007742 -7.408114 -28.368458 0.108923 0.249172 -28.533785 0.024176 0.207516 -0.000606 -0.000002 -0.000024 0.000000 0.000000 0.000000 0.000000 0.000000 0.000000 1.401541 -17.900431 20.737867 -0.008967 -0.607911 5.661022 -4.944701 -17.102037 14.146494 -0.564214 1.021046 -15.969870 0.000000 0.000000 0.000000 0.000000 0.000000 0.000000 0.000000 0.000000 0.000000 15.721946 -3.392095 4.969872 0.403580 1.404917 15.869671 -7.391432 6.356232 22.043667 1.682134 -0.917779 -21.364134 0.000000 0.000000 0.000000 0.000000 0.000000 0.000000 0.000000 0.000000 0.000000 
-13.705860 87.296349 25.554077 -2.523963 13.720204 -17.913078 4.883086 -1.073040 9.761815 1.354835 -0.206969 3.990801 -0.805249 -0.354865 8.387197 -1.624166 -0.013246 6.749039 -3.837213 0.583716 11.722888 -1.165947 -0.615682 0.032670 -1.378894 -1.714233 -22.022802 0.000000 0.000000 0.000000 85.687767 0.402820 8.143998 53.384266 4.565514 3.729172 0.160206 24.253925 77.615646 65.723549 45.772278 44.116333 14.039870 -1.980491 38.540829 -0.000008 0.000027 -33.632206 0.000004 0.000036 -23.322655 0.000006 -0.000000 -0.000015 31.777607 0.130891 -8.167936 21.457413 -0.139013 0.388914 21.347950 -0.131258 0.323090 -0.000018 0.000017 -0.000009 29.970377 -0.013381 -8.139350 20.104397 -0.068083 0.158095 20.504120 -0.041566 0.122379 0.000002 -0.000142 -0.000023 29.697781 -0.051941 -7.957845 20.490818 0.139597 -0.209483 20.649788 0.071054 -0.138695 0.000009 -0.000074 -0.000003 29.412527 0.059494 -8.678294 19.487972 0.378024 -0.599880 19.660072 0.277509 -0.485785 -0.000371 0.000000 0.000033 0.000000 0.000000 0.000000 0.000000 0.000000 0.000000 -85.173141 -0.517001 3.586629 -63.769714 -11.370469 -5.206100 -0.609396 -20.695217 86.549782 -80.281662 -40.177010 54.931713 -15.409638 2.031317 37.870724 0.000007 0.000019 -37.629513 -0.000022 -0.000007 -26.051100 -0.000268 -0.000000 0.001355 -40.456337 0.037190 -9.419641 -27.866510 -0.032046 -0.116231 -27.818039 0.003739 -0.127501 0.000030 0.000379 -0.000022 -39.352226 0.009437 -8.729928 -27.605448 -0.027062 -0.049290 -27.391590 -0.006952 -0.052125 0.000228 0.000006 -0.000166 -40.900887 0.000373 -8.124654 -29.327085 0.049677 0.064331 -29.389448 0.014600 0.050962 0.000125 0.000015 -0.000001 -41.503967 0.003129 -7.183364 -29.346899 0.108340 0.267848 -29.511290 0.023475 0.221454 -0.000596 -0.000003 -0.000023 0.000000 0.000000 0.000000 0.000000 0.000000 0.000000 1.162854 -17.904690 20.977997 -0.011497 -0.632387 5.508280 -4.715301 -17.023134 14.081322 -0.595733 1.051269 -15.918563 0.000000 0.000000 0.000000 0.000000 0.000000 0.000000 0.000000 0.000000 0.000000 15.521942 -3.351628 5.112494 0.403004 1.410396 15.837587 -7.317102 6.359796 21.841217 1.667513 -0.933729 -21.323364 0.000000 0.000000 0.000000 0.000000 0.000000 0.000000 0.000000 0.000000 0.000000 
-13.439625 87.296257 25.647581 -2.490737 13.693029 -17.916239 4.824579 -1.073024 9.778157 1.333073 -0.199318 3.946802 -0.871055 -0.317997 8.500271 -1.673546 -0.004049 6.738215 -3.845568 0.466670 11.645096 -1.160652 -0.724610 -0.047805 -1.315340 -1.703536 -22.105316 0.000000 0.000000 0.000000 85.721870 0.363160 8.024800 53.337624 4.596019 3.471239 0.153445 24.316725 78.507019 66.393379 45.883858 44.657379 14.212370 -1.979698 38.475819 -0.000007 0.000027 -34.056549 0.000004 0.000036 -23.610144 0.000006 -0.000001 -0.000014 32.799057 0.133727 -8.406021 22.202358 -0.138592 0.407763 22.080090 -0.130429 0.338894 -0.000017 0.000016 -0.000009 30.944553 -0.013020 -8.241785 20.823092 -0.067802 0.165030 21.220510 -0.041032 0.127244 0.000002 -0.000150 -0.000023 30.674553 -0.052728 -7.909773 21.246904 0.139749 -0.221216 21.400484 0.070890 -0.146347 0.000009 -0.000172 -0.000004 30.357023 0.059847 -8.471537 20.234491 0.378752 -0.630336 20.409304 0.277766 -0.511248 -0.000385 -0.000000 0.000032 0.000000 0.000000 0.000000 0.000000 0.000000 0.000000 -85.214493 -0.482131 3.445864 -63.729801 -12.086258 -5.608000 -0.657884 -20.790627 87.335106 -81.010902 -40.324883 55.665279 -15.588820 2.030029 37.799145 0.000007 0.000019 -38.077324 -0.000026 -0.000007 -26.365591 -0.000202 0.000000 0.001242 -41.443378 0.036290 -9.602162 -28.566082 -0.033611 -0.133528 -28.517952 0.002603 -0.141948 0.000031 0.000343 -0.000022 -40.345737 0.009146 -8.813047 -28.321798 -0.027916 -0.054734 -28.112324 -0.007595 -0.056637 0.000384 0.000006 -0.000174 -42.083839 -0.000363 -8.042084 -30.205029 0.049298 0.071751 -30.261753 0.014667 0.056600 0.000089 0.000014 -0.000001 -42.804058 -0.001298 -6.945621 -30.294258 0.107857 0.287924 -30.458250 0.022789 0.235721 -0.000589 -0.000003 -0.000023 0.000000 0.000000 0.000000 0.000000 0.000000 0.000000 0.913697 -17.887962 21.222162 -0.014654 -0.657637 5.363155 -4.484556 -16.928177 14.015093 -0.629386 1.082786 -15.871074 0.000000 0.000000 0.000000 0.000000 0.000000 0.000000 0.000000 0.000000 0.000000 15.314870 -3.302581 5.288606 0.402326 1.415148 15.795573 -7.245980 6.375943 21.628344 1.651441 -0.950905 -21.275667 0.000000 0.000000 0.000000 0.000000 0.000000 0.000000 0.000000 0.000000 0.000000 
-13.160451 87.298569 25.745653 -2.447978 13.641680 -17.921656 4.764100 -1.072947 9.798034 1.310089 -0.193272 3.900251 -0.937116 -0.285120 8.619760 -1.725785 0.002382 6.733459 -3.859118 0.360726 11.568718 -1.151814 -0.820286 -0.127295 -1.253481 -1.691144 -22.179310 0.000000 0.000000 0.000000 85.767654 0.323934 7.908121 53.381237 4.574172 3.179027 0.138613 24.365980 79.550308 67.148888 45.903664 45.286373 14.390676 -1.978299 38.409084 -0.000007 0.000026 -34.495018 0.000004 0.000035 -23.907570 0.000006 -0.000001 -0.000013 33.862617 0.136497 -8.627769 22.974564 -0.137370 0.425660 22.840313 -0.128888 0.353943 -0.000017 0.000015 -0.000008 31.961159 -0.012644 -8.335223 21.569054 -0.067172 0.171492 21.963810 -0.040201 0.131750 0.000002 -0.000157 -0.000023 31.693172 -0.053457 -7.858572 22.031000 0.139221 -0.232689 22.178408 0.070238 -0.153712 0.000009 -0.000262 -0.000004 31.336647 0.060263 -8.266471 21.009901 0.377611 -0.659081 21.186415 0.276497 -0.534994 -0.000392 -0.000001 0.000031 0.000000 0.000000 0.000000 0.000000 0.000000 0.000000 -85.267090 -0.449053 3.314778 -63.700233 -12.830324 -6.020137 -0.702872 -20.896242 88.109512 -81.734314 -40.474022 56.414993 -15.759346 2.029239 37.729721 0.000007 0.000018 -38.505672 -0.000032 -0.000007 -26.666653 -0.000148 0.000001 0.001123 -42.384834 0.035269 -9.768991 -29.225582 -0.035052 -0.150342 -29.178741 0.001599 -0.156095 0.000031 0.000300 -0.000022 -41.292843 0.008901 -8.887001 -28.996374 -0.028715 -0.060043 -28.791695 -0.008143 -0.060954 0.000546 0.000006 -0.000181 -43.214111 -0.000961 -7.954960 -31.036036 0.048867 0.079260 -31.087215 0.014620 0.062113 0.000041 0.000014 -0.000002 -44.045765 -0.005329 -6.704078 -31.194525 0.107336 0.308757 -31.358759 0.022001 0.249952 -0.000585 -0.000003 -0.000022 0.000000 0.000000 0.000000 0.000000 0.000000 0.000000 0.651865 -17.851896 21.468384 -0.018421 -0.683422 5.230192 -4.252378 -16.816420 13.947365 -0.664524 1.115328 -15.826418 0.000000 0.000000 0.000000 0.000000 0.000000 0.000000 0.000000 0.000000 0.000000 15.099152 -3.249409 5.497023 0.401486 1.418994 15.745916 -7.176314 6.402041 21.408613 1.634100 -0.969146 -21.222775 0.000000 0.000000 0.000000 0.000000 0.000000 0.000000 0.000000 0.000000 0.000000 
